<?xml version="1.0" standalone="no"?>
<!DOCTYPE svg PUBLIC "-//W3C//DTD SVG 20010904//EN"
 "http://www.w3.org/TR/2001/REC-SVG-20010904/DTD/svg10.dtd">
<svg version="1.0" xmlns="http://www.w3.org/2000/svg"
 width="507.000000pt" height="507.000000pt" viewBox="0 0 507.000000 507.000000"
 preserveAspectRatio="xMidYMid meet">
<metadata>
Created by potrace 1.11, written by Peter Selinger 2001-2013
</metadata>
<g transform="translate(0.000000,507.000000) scale(0.100000,-0.100000)"
fill="#000000" stroke="none">
<path d="M605 4193 c9 -21 245 -581 526 -1244 280 -664 509 -1213 509 -1220
-1 -24 -68 -107 -112 -139 -134 -97 -403 -73 -559 51 -22 17 -41 30 -43 28 -2
-2 -70 -139 -150 -304 l-147 -300 33 -28 c69 -59 258 -136 421 -172 115 -26
354 -31 478 -10 289 47 502 174 670 398 68 91 142 219 194 337 27 63 1061
2548 1092 2628 4 10 -79 12 -411 10 l-417 -3 -299 -739 c-165 -406 -301 -741
-303 -743 -4 -3 -584 1431 -595 1470 -4 16 -34 17 -453 17 l-449 0 15 -37z"/>
<path d="M3823 2735 c-87 -19 -178 -69 -244 -135 -96 -95 -139 -207 -139 -365
0 -141 38 -246 124 -342 158 -175 422 -223 644 -115 72 34 178 140 214 212 63
127 75 302 29 432 -85 244 -347 374 -628 313z"/>
</g>
</svg>
