<svg xmlns="http://www.w3.org/2000/svg" viewBox="0 0 1440 320">
  <path fill="#ececec" fill-opacity="1" d="M0,128L18.5,138.7C36.9,149,74,171,111,154.7C147.7,139,185,85,222,80C258.5,75,295,117,332,133.3C369.2,149,406,139,443,149.3C480,160,517,192,554,181.3C590.8,171,628,117,665,96C701.5,75,738,85,775,96C812.3,107,849,117,886,117.3C923.1,117,960,107,997,106.7C1033.8,107,1071,117,1108,117.3C1144.6,117,1182,107,1218,101.3C1255.4,96,1292,96,1329,112C1366.2,128,1403,160,1422,176L1440,192L1440,320L1421.5,320C1403.1,320,1366,320,1329,320C1292.3,320,1255,320,1218,320C1181.5,320,1145,320,1108,320C1070.8,320,1034,320,997,320C960,320,923,320,886,320C849.2,320,812,320,775,320C738.5,320,702,320,665,320C627.7,320,591,320,554,320C516.9,320,480,320,443,320C406.2,320,369,320,332,320C295.4,320,258,320,222,320C184.6,320,148,320,111,320C73.8,320,37,320,18,320L0,320Z"></path>
</svg>