<?xml version="1.0" encoding="UTF-8"?>
<!-- Created with Inkscape (http://www.inkscape.org/) -->
<svg width="732.85" height="306.18" version="1.1" viewBox="0 0 193.9 81.009" xmlns="http://www.w3.org/2000/svg">
 <g transform="matrix(.50883 0 0 .50883 44.992 -36.204)" fill="#ececec" stroke-width=".51998">
  <path d="m-88.356 91.569h7.9375c7.9375 0 23.812 0 39.687-2.831 15.875-2.7252 31.75-8.546 47.625-12.7 15.875-4.3127 31.75-6.9585 47.625-2.8046 15.875 4.3127 31.75 15.425 47.625 18.336 15.875 2.9104 31.75-2.9104 47.625-1.4023 15.875 1.4023 31.75 9.869 47.625 11.271 15.875 1.5081 31.75-4.3127 47.625-5.6356 15.875-1.3229 31.75 1.3229 39.688 2.831l7.9375 1.4023v50.8h-7.9375-39.688-47.625-47.625-47.625-47.625-47.625-47.625-39.687-7.9375z"/>
  <path d="m292.57 210.1-7.9375-0.0104c-7.9375-0.0104-23.812-0.0311-39.691 2.7792-15.879 2.7045-31.761 8.5046-47.642 12.638-15.881 4.292-31.759 6.917-47.629 2.7423-15.869-4.3334-31.73-15.467-47.601-18.398-15.871-2.9312-31.754 2.8689-47.627 1.34-15.873-1.423-31.737-9.9104-47.61-11.333-15.873-1.5289-31.756 4.2712-47.632 5.5734-15.877 1.3022-31.748-1.3644-39.684-2.8829l-7.9357-1.4127 0.06639-50.8 7.9375 0.0104c7.9375 0.0104 23.812 0.0311 39.687 0.0519 15.875 0.0207 31.75 0.0415 47.625 0.0622 15.875 0.0207 31.75 0.0415 47.625 0.0622 15.875 0.0207 31.75 0.0415 47.625 0.0622 15.875 0.0207 31.75 0.0415 47.625 0.0622 15.875 0.0208 31.75 0.0415 47.625 0.0622 15.875 0.0207 31.75 0.0415 47.625 0.0622 15.875 0.0207 31.75 0.0415 39.687 0.0519l7.9375 0.0104z"/>
 </g>
</svg>
