<?xml version="1.0" encoding="UTF-8" standalone="no"?>
<svg
   xmlns:dc="http://purl.org/dc/elements/1.1/"
   xmlns:cc="http://creativecommons.org/ns#"
   xmlns:rdf="http://www.w3.org/1999/02/22-rdf-syntax-ns#"
   xmlns:svg="http://www.w3.org/2000/svg"
   xmlns="http://www.w3.org/2000/svg"
   xmlns:sodipodi="http://sodipodi.sourceforge.net/DTD/sodipodi-0.dtd"
   xmlns:inkscape="http://www.inkscape.org/namespaces/inkscape"
   id="e189b3b9-b88e-4ad6-86fc-a3cf637fca9f"
   data-name="Layer 1"
   width="1082.43901"
   height="449.88124"
   viewBox="0 0 1082.43901 449.88124"
   version="1.1"
   sodipodi:docname="dev1.svg"
   inkscape:version="1.0.1 (0767f8302a, 2020-10-17)">
  <metadata
     id="metadata79">
    <rdf:RDF>
      <cc:Work
         rdf:about="">
        <dc:format>image/svg+xml</dc:format>
        <dc:type
           rdf:resource="http://purl.org/dc/dcmitype/StillImage" />
      </cc:Work>
    </rdf:RDF>
  </metadata>
  <defs
     id="defs77" />
  <sodipodi:namedview
     pagecolor="#ffffff"
     bordercolor="#666666"
     borderopacity="1"
     objecttolerance="10"
     gridtolerance="10"
     guidetolerance="10"
     inkscape:pageopacity="0"
     inkscape:pageshadow="2"
     inkscape:window-width="1920"
     inkscape:window-height="1009"
     id="namedview75"
     showgrid="false"
     inkscape:zoom="0.73583826"
     inkscape:cx="835.63582"
     inkscape:cy="130.74803"
     inkscape:window-x="0"
     inkscape:window-y="34"
     inkscape:window-maximized="1"
     inkscape:current-layer="e189b3b9-b88e-4ad6-86fc-a3cf637fca9f" />
  <title
     id="title2">code_thinking</title>
  <polygon
     points="77.591 390.495 52.772 388.84 61.045 426.069 89.173 414.487 77.591 390.495"
     fill="#ffb9b9"
     id="polygon4" />
  <polygon
     points="305.1 321.001 247.189 264.744 214.096 290.391 148.739 368.985 156.185 380.567 235.606 326.792 289.381 397.113 340.674 371.467 305.1 321.001"
     fill="#2f2e41"
     id="polygon6" />
  <polygon
     points="305.1 321.001 247.189 264.744 214.096 290.391 148.739 368.985 156.185 380.567 235.606 326.792 289.381 397.113 340.674 371.467 305.1 321.001"
     opacity="0.1"
     id="polygon8" />
  <path
     d="M368.84451,583.28933l-7.44576,5.79115-60.39337-20.68267-14.06421-5.79114-28.12842,5.79114s0-23.16458,26.47381-22.33727l27.30111,6.61845,32.265,2.48192Z"
     transform="translate(-58.78049 -225.05938)"
     fill="#ffb9b9"
     id="path10" />
  <polygon
     points="363.839 419.451 345.638 431.033 324.128 431.033 224.024 393.804 77.591 420.278 73.454 388.84 207.478 330.102 324.956 368.985 363.839 419.451"
     fill="#2f2e41"
     id="polygon12" />
  <path
     d="M305.14191,497.24946l-12.4096,2.48191-2.70423-3.15494a16.71669,16.71669,0,0,1-2.25961-18.355h0l34.74687-45.50186s9.92768-22.33728,25.6465-13.23691-13.2369,23.99189-13.2369,23.99189l-17.37344,27.30112,1.65461,14.06421Z"
     transform="translate(-58.78049 -225.05938)"
     fill="#ffb9b9"
     id="path14" />
  <circle
     cx="324.95554"
     cy="186.1502"
     r="32.26495"
     fill="#ffb9b9"
     id="circle16" />
  <path
     d="M369.25817,434.78781,384.14968,470.362l35.57418-14.89151s-11.58229-28.12842-11.58229-28.95573S369.25817,434.78781,369.25817,434.78781Z"
     transform="translate(-58.78049 -225.05938)"
     fill="#ffb9b9"
     id="path18" />
  <path
     d="M467.21951,540.02944a185.3827,185.3827,0,0,1-9.09209,57.34061l-2.41572,7.42925-11.5823,52.94762-12.40959,3.30922-9.10037-11.58229L404.41869,636.237l-13.2369-21.51-11.35062-18.91222-3.5409-5.907-12.4096-62.048L316.7242,501.386l-15.71882-2.48192,3.30923-9.10037,14.06421-19.02805L332.443,469.121l4.13653-3.30922,3.30923,1.65461,13.2369-7.44576,4.13653,1.65462,24.19044,2.25025,14.693-3.07756L417.275,449.50558l8.65364,1.41471,29.783,24.8192A185.22006,185.22006,0,0,1,467.21951,540.02944Z"
     transform="translate(-58.78049 -225.05938)"
     fill="#575a89"
     id="path20" />
  <path
     d="M119.17072,628.36472s7.40995-12.55867,4.28015-14.02487-16.42157-7.31125-16.42157-7.31125l-19.49215-6.45971s-28.126-41.801-28.74337-5.45025,20.47916,45.08869,20.47916,45.08869S98.0885,680.7,108.74669,674.243,130.07,645.86717,130.07,645.86717,110.85,635.53508,119.17072,628.36472Z"
     transform="translate(-58.78049 -225.05938)"
     fill="#2f2e41"
     id="path22" />
  <polygon
     points="399.413 307.764 367.975 328.447 321.051 370.755 317.51 364.848 307.582 315.21 310.064 315.21 335.711 268.054 399.413 307.764"
     opacity="0.1"
     id="polygon24" />
  <polygon
     points="335.711 263.09 310.064 310.246 300.964 310.246 295.173 326.792 281.936 330.102 317.51 368.985 367.975 323.483 399.413 302.8 335.711 263.09"
     fill="#575a89"
     id="polygon26" />
  <path
     d="M358.64047,387.21919l-3.49581,1.345a4.88017,4.88017,0,0,1-1.24759-6.86l-6.4602-.30231a48.78211,48.78211,0,0,1,72.82519-5.86988c.29412-1.013,3.50037.95787,4.80938,2.95626.43984-1.64837,3.4461,6.31994,4.5094,11.95247.49227-1.8754,2.385,1.15218.72681,4.05727,1.05066-.15351,1.52525,2.53462.71189,4.0322,1.1494-.54.95568,2.66884-.29057,4.81326,1.64017-.14573-12.93544,22.47575-18.83687,35.696-1.71358-7.87343-3.64027-16.1643-9.16573-22.02916-.93919-.99689-1.96768-1.90488-2.9945-2.81126l-5.55369-4.90228c-6.4579-5.70042-12.33246-12.7359-20.93549-14.8664-5.91224-1.46413-9.65052-1.7947-6.42852-8.45681-2.911,1.21478-5.6294,3.02129-8.5665,4.14957C358.28712,389.19225,358.69761,388.15058,358.64047,387.21919Z"
     fill="#2f2e41"
     id="path28"
     transform="translate(-58.78049 -225.05938)" />
  <circle
     cx="341.08801"
     cy="189.87308"
     r="5.79115"
     fill="#ffb9b9"
     id="circle30" />
  <path
     d="M1085.0123,230.4217H824.8427v-5.36232h-117.971v5.36232H445.62961a17.5985,17.5985,0,0,0-17.59851,17.59851V604.2724A17.59855,17.59855,0,0,0,445.62961,621.871H1085.0123a17.59855,17.59855,0,0,0,17.59851-17.59857V248.02021A17.5985,17.5985,0,0,0,1085.0123,230.4217Z"
     transform="translate(-58.78049 -225.05938)"
     fill="#3f3d56"
     id="path44" />
  <rect
     x="392.84481"
     y="36.46377"
     width="627.3913"
     height="353.91304"
     fill="#5ab9ea"
     id="rect46" />
  <circle
     cx="706.00423"
     cy="20.37681"
     r="6.43478"
     fill="#5ab9ea"
     id="circle48" />
  <polygon
     points="840.813 390.377 392.845 390.377 392.845 36.464 840.813 390.377"
     opacity="0.1"
     id="polygon50" />
  <circle
     cx="491.01276"
     cy="303.58656"
     r="60.3068"
     fill="#f2f2f2"
     id="circle52" />
  <path
     d="m 543.24596,347.71018 a 75.01578,75.01578 0 1 1 75.01578,-75.01577 75.10088,75.10088 0 0 1 -75.01578,75.01577 z m 0,-149.05095 a 74.03518,74.03518 0 1 0 74.03518,74.03518 74.119,74.119 0 0 0 -74.03518,-74.03518 z"
     fill="#3f3d56"
     id="path54" />
  <rect
     x="852.39173"
     y="227.33189"
     width="58.6052"
     height="12.24586"
     fill="#3f3d56"
     id="rect56" />
  <rect
     x="781.54067"
     y="131.9891"
     width="200.30733"
     height="5.24823"
     fill="#3f3d56"
     id="rect58" />
  <rect
     x="781.54067"
     y="148.60849"
     width="200.30733"
     height="5.24823"
     fill="#3f3d56"
     id="rect60" />
  <rect
     x="781.54067"
     y="165.22788"
     width="200.30733"
     height="5.24823"
     fill="#3f3d56"
     id="rect62" />
  <rect
     x="781.54067"
     y="181.84726"
     width="200.30733"
     height="5.24823"
     fill="#3f3d56"
     id="rect64" />
  <rect
     x="781.54067"
     y="198.46665"
     width="200.30733"
     height="5.24823"
     fill="#3f3d56"
     id="rect66" />
  <rect
     x="957.35627"
     y="43.64395"
     width="24.49173"
     height="24.49173"
     fill="#f2f2f2"
     id="rect68" />
  <path
     d="M1051.99965,304.56621h-29.74v-29.74h29.74Zm-28.44691-1.293h27.15387V276.1193h-27.15387Z"
     transform="translate(-58.78049 -225.05938)"
     fill="#3f3d56"
     id="path70" />
  <path
     d="M1120.2266,609.00139h-61.22932v-4.41153a.87467.87467,0,0,0-.8747-.87471h-20.99291a.87468.87468,0,0,0-.8747.87471v4.41153H1023.1344v-4.41153a.87468.87468,0,0,0-.8747-.87471h-20.99291a.87468.87468,0,0,0-.87471.87471v4.41153H987.27152v-4.41153a.87468.87468,0,0,0-.87471-.87471H965.4039a.87468.87468,0,0,0-.8747.87471v4.41153H951.40863v-4.41153a.87468.87468,0,0,0-.8747-.87471H929.541a.87467.87467,0,0,0-.8747.87471v4.41153H915.54575v-4.41153a.87468.87468,0,0,0-.87471-.87471h-20.9929a.87468.87468,0,0,0-.87471.87471v4.41153H879.68286v-4.41153a.87468.87468,0,0,0-.8747-.87471H857.81525a.87468.87468,0,0,0-.8747.87471v4.41153H843.82v-4.41153a.87468.87468,0,0,0-.8747-.87471H678.50083a.87468.87468,0,0,0-.8747.87471v4.41153H664.50556v-4.41153a.87468.87468,0,0,0-.87471-.87471H642.638a.87468.87468,0,0,0-.87471.87471v4.41153H628.64267v-4.41153a.87467.87467,0,0,0-.8747-.87471H606.77506a.87468.87468,0,0,0-.8747.87471v4.41153H592.77979v-4.41153a.87468.87468,0,0,0-.8747-.87471H570.91218a.87468.87468,0,0,0-.87471.87471v4.41153H556.91691v-4.41153a.87468.87468,0,0,0-.87471-.87471H535.04929a.87468.87468,0,0,0-.8747.87471v4.41153H521.054v-4.41153a.87468.87468,0,0,0-.8747-.87471H499.18641a.87467.87467,0,0,0-.8747.87471v4.41153H485.19114v-4.41153a.87468.87468,0,0,0-.87471-.87471h-20.9929a.87468.87468,0,0,0-.87471.87471v4.41153H422.21241a20.99292,20.99292,0,0,0-20.9929,20.99291v9.4925a20.99291,20.99291,0,0,0,20.9929,20.99285H1120.2266a20.99292,20.99292,0,0,0,20.99291-20.99285v-9.4925A20.99293,20.99293,0,0,0,1120.2266,609.00139Z"
     transform="translate(-58.78049 -225.05938)"
     fill="#3f3d56"
     id="path72" />
</svg>
