<svg xmlns="http://www.w3.org/2000/svg" viewBox="0 0 1440 320">
    <path fill="#ececec" fill-opacity="1" d="M0,256L13.3,213.3C26.7,171,53,85,80,42.7C106.7,0,133,0,160,0C186.7,0,213,0,240,53.3C266.7,107,293,213,320,256C346.7,299,373,277,400,266.7C426.7,256,453,256,480,256C506.7,256,533,256,560,234.7C586.7,213,613,171,640,176C666.7,181,693,235,720,229.3C746.7,224,773,160,800,128C826.7,96,853,96,880,96C906.7,96,933,96,960,117.3C986.7,139,1013,181,1040,181.3C1066.7,181,1093,139,1120,101.3C1146.7,64,1173,32,1200,32C1226.7,32,1253,64,1280,90.7C1306.7,117,1333,139,1360,133.3C1386.7,128,1413,96,1427,80L1440,64L1440,0L1426.7,0C1413.3,0,1387,0,1360,0C1333.3,0,1307,0,1280,0C1253.3,0,1227,0,1200,0C1173.3,0,1147,0,1120,0C1093.3,0,1067,0,1040,0C1013.3,0,987,0,960,0C933.3,0,907,0,880,0C853.3,0,827,0,800,0C773.3,0,747,0,720,0C693.3,0,667,0,640,0C613.3,0,587,0,560,0C533.3,0,507,0,480,0C453.3,0,427,0,400,0C373.3,0,347,0,320,0C293.3,0,267,0,240,0C213.3,0,187,0,160,0C133.3,0,107,0,80,0C53.3,0,27,0,13,0L0,0Z"></path>
  </svg>
  