<?xml version="1.0" encoding="UTF-8" standalone="no"?>
<!-- Created with Inkscape (http://www.inkscape.org/) -->

<svg
   width="927.58301"
   height="200"
   viewBox="0 0 245.423 52.916668"
   version="1.1"
   id="svg5"
   inkscape:version="1.1 (ce6663b3b7, 2021-05-25)"
   sodipodi:docname="wave-back-2.svg"
   xmlns:inkscape="http://www.inkscape.org/namespaces/inkscape"
   xmlns:sodipodi="http://sodipodi.sourceforge.net/DTD/sodipodi-0.dtd"
   xmlns="http://www.w3.org/2000/svg"
   xmlns:svg="http://www.w3.org/2000/svg">
  <sodipodi:namedview
     id="namedview7"
     pagecolor="#ffffff"
     bordercolor="#666666"
     borderopacity="1.0"
     inkscape:pageshadow="2"
     inkscape:pageopacity="0.0"
     inkscape:pagecheckerboard="0"
     inkscape:document-units="mm"
     showgrid="false"
     width="732.849px"
     units="px"
     inkscape:zoom="0.49071405"
     inkscape:cx="-132.46003"
     inkscape:cy="-19.359543"
     inkscape:window-width="1920"
     inkscape:window-height="1009"
     inkscape:window-x="0"
     inkscape:window-y="34"
     inkscape:window-maximized="1"
     inkscape:current-layer="layer1"
     height="200px" />
  <defs
     id="defs2" />
  <g
     inkscape:label="Layer 1"
     inkscape:groupmode="layer"
     id="layer1">
    <g
       id="g1314"
       transform="matrix(0.68816636,0,0,0.34746953,132.8263,10.220059)"
       style="stroke-width:2.04502">
      <path
         fill="#0099ff"
         fill-opacity="1"
         d="m -193.01481,33.696837 6.61258,-6.518053 c 6.58781,-6.518054 19.88725,-19.5541635 33.01333,-19.5541635 13.20037,0 26.49982,13.0361095 39.62591,19.5541635 13.20037,6.518053 26.499808,6.518053 39.625888,2.159106 13.20038,-4.195999 26.49983,-13.158322 39.625905,-15.195216 13.200377,-2.036891 26.499826,2.036894 39.62591,6.518056 13.200368,4.481161 26.499805,8.554946 39.625895,0 13.200375,-8.554947 26.499826,-30.5533777 39.625898,-41.26743 13.200381,-10.877003 26.499824,-10.877003 39.625914,-4.358949 13.20038,6.518055 26.49981,19.5541623 32.93903,26.072216 l 6.68687,6.5180535 V 59.769054 h -6.61258 c -6.5878,0 -19.88725,0 -33.01332,0 -13.20039,0 -26.49983,0 -39.625914,0 -13.200375,0 -26.499813,0 -39.625898,0 -13.20038,0 -26.49983,0 -39.625895,0 -13.200387,0 -26.499827,0 -39.62591,0 -13.200375,0 -26.499815,0 -39.625905,0 -13.20037,0 -26.499818,0 -39.625888,0 -13.20039,0 -26.49983,0 -39.62591,0 -13.20038,0 -26.49982,0 -32.93903,0 h -6.68688 z"
         id="path1033"
         style="fill:#ececec;fill-opacity:1;stroke-width:0.541074" />
      <path
         fill="#0099ff"
         fill-opacity="1"
         d="m 163.61832,59.769054 -6.61257,6.518053 C 150.41794,72.805161 137.1185,85.84127 123.99241,85.84127 110.79204,85.84127 97.492593,72.805161 84.366508,66.287107 71.166133,59.769054 57.8667,59.769054 44.740628,64.128001 31.540247,68.323999 18.240798,77.286323 5.114723,79.323216 c -13.200387,2.036894 -26.499836,-2.036893 -39.62592,-6.518055 -13.200365,-4.481162 -26.499805,-8.554946 -39.625895,0 -13.20038,8.554949 -26.499818,30.553379 -39.625898,41.267439 -13.20037,10.87699 -26.49982,10.87699 -39.62591,4.35894 -13.20039,-6.51806 -26.49982,-19.55416 -32.93904,-26.07222 l -6.68687,-6.51805 V 33.696836 h 6.61258 c 6.5878,0 19.88725,0 33.01333,0 13.20039,0 26.49983,0 39.62591,0 13.20038,0 26.499818,0 39.625898,0 13.20038,0 26.49983,0 39.625895,0 13.200387,0 26.499826,0 39.62592,0 13.200378,0 26.499814,0 39.625905,0 13.200369,0 26.499808,0 39.62588,0 13.200387,0 26.499822,0 39.625902,0 13.20039,0 26.49983,0 32.93904,0 h 6.68687 z"
         id="path1310"
         style="fill:#ececec;fill-opacity:1;stroke-width:0.541074" />
    </g>
  </g>
</svg>
